<svg xmlns="http://www.w3.org/2000/svg" id="Layer_1" data-name="Layer 1" viewBox="0 0 100 100">
  <defs>
    <style>
      .cls-1 {
        fill: #fff;
        stroke-width: 0px;
      }
    </style>
  </defs>
  <g>
    <path class="cls-1" d="M70.15,14.28l-20.5,24.67L29.14,14.28c-4.83,3.25-8.84,7.62-11.68,12.73l14.15,17.02c-6.27.66-12.51,1.67-18.67,3.02.36,5.97,2.14,11.55,5.01,16.41,20.82-4.36,42.55-4.36,63.37,0,2.87-4.87,4.65-10.45,5.01-16.41-6.16-1.35-12.39-2.36-18.67-3.02l14.15-17.02c-2.83-5.11-6.85-9.48-11.68-12.73Z"/>
    <path class="cls-1" d="M33.45,64.67c3.56-.12,11.06,6.9,11.18,10.46.12,3.56-6.9,10.92-10.46,11.04-3.56.12-11.05-6.76-11.17-10.32-.12-3.56,6.9-11.06,10.46-11.18Z"/>
    <path class="cls-1" d="M65.13,86.17c3.56.12,11.06-6.9,11.18-10.46s-6.9-10.92-10.46-11.04c-3.56-.12-11.05,6.76-11.17,10.32s6.9,11.06,10.46,11.18Z"/>
  </g>
</svg>